# xmcd
#
# Track frame offsets:
#	150
#	12100
#	27225
#	37787
#	52675
#	66412
#	77237
#	91575
#	103800
#	115875
#	132525
#	144112
#	155912
#	165775
#	177325
#	190475
#	206150
#	221575
#	236175
#	248825
#	258725
#	267475
#	275425
#	289950
#
# Disc length: 4032
#
# Revision: 4
# Processed by: cddbd v1.5.1PL0 Copyright (c) Steve Scherf et al.
# Submitted via: OrangeCD 4.2
# Normalized: r2:DSETVAR1,TDELIM( - ),TSWAP
#
DISCID=610fbe18
DTITLE=Various Artist - Country Gold - 90 Greatest Hits Vol 3
DYEAR=1991
DGENRE=Country
TTITLE0=Don Gibson - Oh Lonesome Me
TTITLE1=Marianne Faithful - I'm Not Lisa
TTITLE2=Freddy Fender - Before The Next Teardrop Falls
TTITLE3=George Hamilton - Four Strong Winds
TTITLE4=Anne Murray - What About Me
TTITLE5=Don Willams - There's Always Something There To Remind Me
TTITLE6=Bobby Helms - My Special Angel
TTITLE7=Billie Jo Spears - What I've Got In Mind
TTITLE8=Ray Charles - Together Again
TTITLE9=George Hamilton IV - I Believe In You
TTITLE10=Sammi Smith - Help Me Make It Through The Night
TTITLE11=Roger Miller - Little Green Apples
TTITLE12=Dolly Parton - Release Me
TTITLE13=Hank Locklin - Send Me The Pillow You Dream On
TTITLE14=George Hamilton IV - Blue Eyes Crying In The Rain
TTITLE15=Billie Jo Spears - Blanket On The Ground
TTITLE16=Bobby Bare - For The Good Times
TTITLE17=Gram Parsons - Streets Of Baltimore
TTITLE18=Dottie West - I Fall To Pieces
TTITLE19=Ned Miller - From A Jack To A King
TTITLE20=Waylon Jennings - Loves Gonna Live Here
TTITLE21=Anne Murray - Reason To Believe
TTITLE22=Val Doonican - Behind Closed Doors
TTITLE23=George Jones - She Thinks I Still Care
EXTD=
EXTT0=
EXTT1=
EXTT2=
EXTT3=
EXTT4=
EXTT5=
EXTT6=
EXTT7=
EXTT8=
EXTT9=
EXTT10=
EXTT11=
EXTT12=
EXTT13=
EXTT14=
EXTT15=
EXTT16=
EXTT17=
EXTT18=
EXTT19=
EXTT20=
EXTT21=
EXTT22=
EXTT23=
PLAYORDER=
